<svg width="29" height="26" viewBox="0 0 29 26" fill="none" xmlns="http://www.w3.org/2000/svg">
    <path d="M15.3893 0.548975C15.0377 0.197466 14.5609 0 14.0637 0C13.5665 0 13.0897 0.197466 12.7381 0.548975L0.274934 13.0102C0.187769 13.0974 0.118626 13.2009 0.0714531 13.3148C0.0242798 13.4286 0 13.5507 0 13.674C0 13.7972 0.0242798 13.9193 0.0714531 14.0332C0.118626 14.1471 0.187769 14.2506 0.274934 14.3377C0.450972 14.5138 0.68973 14.6127 0.938684 14.6127C1.06195 14.6127 1.18402 14.5884 1.2979 14.5412C1.41179 14.494 1.51527 14.4249 1.60243 14.3377L2.81368 13.1246V23.049C2.81368 23.7949 3.11 24.5103 3.63745 25.0377C4.16489 25.5652 4.88026 25.8615 5.62618 25.8615H22.5012C23.2471 25.8615 23.9625 25.5652 24.4899 25.0377C25.0174 24.5103 25.3137 23.7949 25.3137 23.049V13.1246L26.5249 14.3377C26.701 14.5138 26.9397 14.6127 27.1887 14.6127C27.4376 14.6127 27.6764 14.5138 27.8524 14.3377C28.0285 14.1617 28.1274 13.9229 28.1274 13.674C28.1274 13.425 28.0285 13.1863 27.8524 13.0102L23.4387 8.59835V2.42397C23.4387 2.17533 23.3399 1.93688 23.1641 1.76106C22.9883 1.58525 22.7498 1.48647 22.5012 1.48647H20.6262C20.3775 1.48647 20.1391 1.58525 19.9633 1.76106C19.7875 1.93688 19.6887 2.17533 19.6887 2.42397V4.84835L15.3893 0.548975ZM23.4387 11.2496V23.049C23.4387 23.2976 23.3399 23.5361 23.1641 23.7119C22.9883 23.8877 22.7498 23.9865 22.5012 23.9865H5.62618C5.37754 23.9865 5.13909 23.8877 4.96327 23.7119C4.78746 23.5361 4.68868 23.2976 4.68868 23.049V11.2496L14.0637 1.8746L23.4387 11.2496Z" fill="white"/>
</svg>
