<svg width="50" height="50" viewBox="0 0 50 50" fill="none" xmlns="http://www.w3.org/2000/svg">
<path d="M37.954 0.459023C38.0991 0.313519 38.2715 0.198078 38.4614 0.119311C38.6512 0.0405445 38.8547 0 39.0602 0C39.2657 0 39.4692 0.0405445 39.659 0.119311C39.8488 0.198078 40.0213 0.313519 40.1664 0.459023L49.541 9.83361C49.6865 9.97875 49.8019 10.1512 49.8807 10.341C49.9595 10.5308 50 10.7343 50 10.9398C50 11.1453 49.9595 11.3488 49.8807 11.5386C49.8019 11.7285 49.6865 11.9009 49.541 12.046L18.2923 43.2947C18.1424 43.4436 17.9638 43.5605 17.7674 43.6384L2.14305 49.8881C1.85911 50.0018 1.54806 50.0296 1.24846 49.9681C0.948862 49.9067 0.673887 49.7586 0.457626 49.5424C0.241365 49.3261 0.0933297 49.0511 0.0318716 48.7515C-0.0295865 48.4519 -0.00176428 48.1409 0.111889 47.8569L6.36162 32.2326C6.43951 32.0362 6.55645 31.8576 6.70535 31.7077L37.954 0.459023ZM35.0197 7.81495L42.1851 14.9803L46.2255 10.9398L39.0602 3.7745L35.0197 7.81495ZM39.9758 17.1895L32.8105 10.0242L12.4988 30.3358V31.2514H14.0613C14.4757 31.2514 14.8731 31.416 15.1661 31.7091C15.4591 32.0021 15.6237 32.3995 15.6237 32.8139V34.3763H17.1861C17.6005 34.3763 17.9979 34.5409 18.2909 34.8339C18.584 35.1269 18.7486 35.5243 18.7486 35.9387V37.5012H19.6642L39.9758 17.1895ZM9.47398 33.3607L9.14275 33.6919L4.36795 45.632L16.3081 40.8573L16.6393 40.526C16.3412 40.4147 16.0843 40.215 15.9028 39.9536C15.7213 39.6923 15.6239 39.3818 15.6237 39.0636V37.5012H14.0613C13.6469 37.5012 13.2495 37.3365 12.9565 37.0435C12.6635 36.7505 12.4988 36.3531 12.4988 35.9387V34.3763H10.9364C10.6182 34.3761 10.3077 34.2787 10.0464 34.0972C9.78504 33.9157 9.58534 33.6588 9.47398 33.3607Z" fill="white"/>
</svg>
