<svg width="30" height="30" viewBox="0 0 30 30" fill="none" xmlns="http://www.w3.org/2000/svg">
    <path d="M20.5687 9.31891C20.8329 9.06745 21.1844 8.92843 21.549 8.93119C21.9137 8.93395 22.263 9.07827 22.5233 9.3337C22.7836 9.58912 22.9345 9.93568 22.9441 10.3002C22.9538 10.6648 22.8214 11.0188 22.575 11.2877L15.0937 20.6439C14.9651 20.7825 14.8098 20.8937 14.6372 20.9708C14.4646 21.048 14.2782 21.0896 14.0892 21.0931C13.9002 21.0966 13.7124 21.062 13.537 20.9912C13.3617 20.9205 13.2024 20.8151 13.0687 20.6814L8.10749 15.7202C7.96933 15.5914 7.85851 15.4362 7.78165 15.2637C7.70479 15.0912 7.66346 14.905 7.66013 14.7161C7.6568 14.5273 7.69153 14.3398 7.76226 14.1647C7.83299 13.9896 7.93826 13.8305 8.07179 13.697C8.20533 13.5634 8.36439 13.4582 8.53949 13.3874C8.7146 13.3167 8.90215 13.282 9.09097 13.2853C9.27979 13.2886 9.466 13.33 9.6385 13.4068C9.811 13.4837 9.96625 13.5945 10.095 13.7327L14.0212 17.657L20.5331 9.36016L20.5687 9.31891Z" fill="#400FF2"/>
</svg>
