<svg width="50" height="50" viewBox="0 0 50 50" fill="none" xmlns="http://www.w3.org/2000/svg">
    <path d="M19.6429 3.125H30.3571C30.8307 3.125 31.2849 3.28962 31.6198 3.58265C31.9547 3.87567 32.1429 4.2731 32.1429 4.6875V7.8125H17.8571V4.6875C17.8571 4.2731 18.0453 3.87567 18.3802 3.58265C18.7151 3.28962 19.1693 3.125 19.6429 3.125ZM35.7143 7.8125V4.6875C35.7143 3.4443 35.1499 2.25201 34.1452 1.37294C33.1406 0.49386 31.7779 0 30.3571 0L19.6429 0C18.2221 0 16.8594 0.49386 15.8548 1.37294C14.8501 2.25201 14.2857 3.4443 14.2857 4.6875V7.8125H1.78571C1.31211 7.8125 0.85791 7.97712 0.523023 8.27015C0.188137 8.56317 0 8.9606 0 9.375C0 9.7894 0.188137 10.1868 0.523023 10.4799C0.85791 10.7729 1.31211 10.9375 1.78571 10.9375H3.70714L6.75357 44.25C6.89723 45.8162 7.70983 47.2777 9.02955 48.3432C10.3493 49.4088 12.0793 50.0003 13.875 50H36.125C37.9207 50.0003 39.6507 49.4088 40.9704 48.3432C42.2902 47.2777 43.1028 45.8162 43.2464 44.25L46.2929 10.9375H48.2143C48.6879 10.9375 49.1421 10.7729 49.477 10.4799C49.8119 10.1868 50 9.7894 50 9.375C50 8.9606 49.8119 8.56317 49.477 8.27015C49.1421 7.97712 48.6879 7.8125 48.2143 7.8125H35.7143ZM42.7071 10.9375L39.6857 44C39.6139 44.7831 39.2076 45.5138 38.5477 46.0466C37.8879 46.5794 37.0229 46.8752 36.125 46.875H13.875C12.9771 46.8752 12.1121 46.5794 11.4523 46.0466C10.7924 45.5138 10.3861 44.7831 10.3143 44L7.29286 10.9375H42.7071ZM15.9679 14.0625C16.4405 14.0386 16.9046 14.1799 17.2582 14.4553C17.6118 14.7307 17.826 15.1177 17.8536 15.5312L19.6393 42.0938C19.658 42.5024 19.4929 42.9013 19.1793 43.2046C18.8658 43.5079 18.4288 43.6916 17.9622 43.7161C17.4956 43.7407 17.0366 43.6042 16.6837 43.3359C16.3309 43.0676 16.1123 42.689 16.075 42.2812L14.2857 15.7188C14.2712 15.5135 14.3032 15.3077 14.3798 15.1133C14.4563 14.9188 14.576 14.7395 14.732 14.5857C14.8879 14.4318 15.0771 14.3064 15.2885 14.2166C15.5 14.1268 15.7296 14.0744 15.9643 14.0625H15.9679ZM34.0321 14.0625C34.2668 14.0744 34.4964 14.1268 34.7079 14.2166C34.9194 14.3064 35.1085 14.4318 35.2645 14.5857C35.4204 14.7395 35.5401 14.9188 35.6167 15.1133C35.6933 15.3077 35.7252 15.5135 35.7107 15.7188L33.925 42.2812C33.9155 42.4889 33.8587 42.6928 33.758 42.881C33.6573 43.0692 33.5147 43.2379 33.3386 43.3773C33.1625 43.5167 32.9563 43.624 32.7322 43.6928C32.5082 43.7617 32.2706 43.7907 32.0336 43.7782C31.7965 43.7657 31.5647 43.712 31.3516 43.6202C31.1386 43.5284 30.9486 43.4003 30.7928 43.2434C30.637 43.0866 30.5186 42.9041 30.4444 42.7067C30.3702 42.5093 30.3417 42.3009 30.3607 42.0938L32.1464 15.5312C32.174 15.1177 32.3882 14.7307 32.7418 14.4553C33.0954 14.1799 33.5595 14.0386 34.0321 14.0625ZM25 14.0625C25.4736 14.0625 25.9278 14.2271 26.2627 14.5201C26.5976 14.8132 26.7857 15.2106 26.7857 15.625V42.1875C26.7857 42.6019 26.5976 42.9993 26.2627 43.2924C25.9278 43.5854 25.4736 43.75 25 43.75C24.5264 43.75 24.0722 43.5854 23.7373 43.2924C23.4024 42.9993 23.2143 42.6019 23.2143 42.1875V15.625C23.2143 15.2106 23.4024 14.8132 23.7373 14.5201C24.0722 14.2271 24.5264 14.0625 25 14.0625Z" fill="#400FF2"/>
</svg>
